<svg width="28" height="28" fill="none" xmlns="http://www.w3.org/2000/svg">
  <rect width="28" height="28" rx="14" fill="#fff" />
  <g clip-path="url(#a)">
    <path
        transform="translate(-6.5 0)"
      d="M 16.905 8.583 C 17.1776 9.5488 16.8361 10.065 15.8932 10.1703 C 16.184 10.4185 16.6583 10.3092 17.0005 9.9347 C 17.8486 9.0065 17.3722 8.1215 16.5766 7.5105 C 15.3975 6.6049 13.6246 7.7521 13.4156 8.9731 C 13.1214 10.6915 14.2933 12.1901 16.0273 12.3596 C 16.2615 12.3825 16.4904 12.4595 16.7202 12.5111 C 17.038 12.1119 17.3818 11.7254 17.6704 11.3013 C 17.8565 11.0278 17.9547 10.9805 18.1193 11.2991 C 18.1894 11.4348 18.3133 11.5426 18.4014 11.6493 C 19.6761 10.8153 20.0357 9.5724 20.1583 8.1125 C 20.9227 9.2802 20.0397 11.7408 18.8176 12.2028 C 18.9988 12.4329 19.1767 12.6587 19.3724 12.9073 C 19.9961 12.0578 20.5849 11.2532 21.1782 10.452 C 21.2389 10.3701 21.3274 10.309 21.4723 10.1733 C 22.4259 11.4617 23.3625 12.7271 24.3328 14.038 C 24.7301 13.5383 25.1462 13.0679 25.4974 12.5534 C 25.7081 12.2447 25.808 12.3212 25.9785 12.5572 C 26.6029 13.4214 27.2398 14.2767 27.8603 15.1436 C 27.9532 15.2734 27.9839 15.4477 28.054 15.6288 C 28.8333 15.6288 29.625 15.6269 30.4166 15.6295 C 30.9136 15.6311 31.5872 16.3112 31.6445 16.8937 C 30.9783 16.7882 30.3211 16.6076 29.6613 16.5972 C 28.6035 16.5804 27.5377 16.6205 26.4867 16.7381 C 24.9892 16.9056 23.6262 17.4821 22.4142 18.3786 C 22.0859 18.6214 21.8086 18.9425 21.5421 19.2567 C 21.2971 19.5457 21.0542 19.5503 20.7833 19.2667 C 20.0037 18.4505 19.1015 17.8516 18.0505 17.3793 C 16.9979 16.9064 15.9102 16.7002 14.8169 16.612 C 13.5245 16.5077 12.203 16.5118 10.9244 16.8798 C 10.8192 16.91 10.6951 16.8743 10.5692 16.8687 C 10.9328 15.9163 11.3285 15.6288 12.244 15.6288 C 12.7375 15.6288 13.2314 15.6159 13.7243 15.6325 C 14.1945 15.6483 14.593 15.645 14.8119 15.0802 C 14.942 14.7446 15.2921 14.4983 15.5238 14.1968 C 15.7474 13.9059 15.9459 13.5957 16.1942 13.2383 C 15.7847 13.1164 15.4094 12.9905 15.0269 12.8934 C 13.6159 12.5354 12.9179 11.5229 12.6904 10.1894 C 12.4601 8.8395 12.8227 7.6572 14.0688 6.8941 C 15.5954 5.9592 17.455 6.5692 17.9579 8.1075 C 18.182 8.793 18.2353 9.557 17.7298 10.1905 C 17.2457 10.7972 16.6646 11.1844 15.8094 11.0225 C 14.7572 10.8232 14.0787 9.9151 14.2934 8.8948 C 14.376 8.5022 15.1147 7.8864 15.5875 7.8159 C 16.0998 7.7395 16.6077 8.0217 16.905 8.583 M 23.3849 16.8884 C 23.9641 16.6114 24.5433 16.3344 25.1191 16.059 C 23.9009 14.4167 22.6831 12.775 21.4368 11.0949 C 20.1664 12.7851 18.8972 14.4737 17.569 16.2407 C 19.1599 16.8313 20.3492 17.8592 21.1463 19.3717 C 21.6475 18.2699 22.4439 17.5559 23.3849 16.8884 M 16.3131 14.0463 C 15.92 14.5935 15.5269 15.1406 15.1499 15.6653 C 15.6304 15.764 16.0757 15.8236 16.5002 15.9522 C 16.8707 16.0644 17.1168 15.9638 17.3306 15.67 C 17.821 14.9962 18.3234 14.331 18.8058 13.6515 C 18.8756 13.5533 18.9284 13.3518 18.8761 13.273 C 18.5735 12.8167 18.237 12.3828 17.8998 11.9248 C 17.3702 12.6395 16.8691 13.3158 16.3131 14.0463 M 24.8228 14.3193 C 24.8267 14.4586 24.7785 14.6325 24.8439 14.7309 C 25.0719 15.0741 25.3269 15.4019 25.5995 15.7111 C 25.6766 15.7986 25.8538 15.8498 25.9762 15.8364 C 26.5178 15.7774 27.0561 15.6888 27.5115 15.6231 C 26.9283 14.8433 26.3245 14.036 25.7081 13.2117 C 25.4264 13.5628 25.1473 13.9105 24.8228 14.3193 M 16.2538 9.342 C 16.4341 8.9644 16.2661 8.6988 15.932 8.5667 C 15.5454 8.4139 15.2568 8.6305 15.12 9.0849 C 15.3262 9.2059 15.5143 9.3539 15.7281 9.4282 C 15.8658 9.476 16.0412 9.4154 16.2538 9.342 z"
      fill="#0d6398" />
  </g>
  <defs>
    <clipPath id="a">
      <path fill="#000" transform="translate(0 0)" d="M0 0h32v32H0z" />
    </clipPath>
  </defs>
</svg>